<?xml version="1.0" standalone="no"?>
<!DOCTYPE svg PUBLIC "-//W3C//DTD SVG 20010904//EN"
 "http://www.w3.org/TR/2001/REC-SVG-20010904/DTD/svg10.dtd">
<svg version="1.0" xmlns="http://www.w3.org/2000/svg"
 width="334.000000pt" height="334.000000pt" viewBox="0 0 334.000000 334.000000"
 preserveAspectRatio="xMidYMid meet">
<metadata>
Created by potrace 1.14, written by Peter Selinger 2001-2017
</metadata>
<g transform="translate(0.000000,334.000000) scale(0.100000,-0.100000)"
fill="#000000" stroke="none">
<path d="M491 2491 c-35 -22 -37 -68 -34 -728 1 -356 5 -663 8 -681 8 -43 43
-66 87 -57 36 8 115 52 226 128 l73 50 -6 511 c-3 281 -10 527 -15 546 -13 49
-24 60 -110 117 -144 96 -208 127 -229 114z"/>
<path d="M2305 2433 c-55 -34 -108 -66 -117 -69 -11 -3 -39 9 -70 29 -159 102
-156 100 -191 86 -40 -16 -134 -73 -251 -152 l-89 -59 55 -28 c30 -16 112 -65
182 -109 70 -45 132 -81 137 -81 5 0 9 17 10 38 2 114 4 124 37 153 21 19 43
29 64 29 34 0 125 -47 284 -147 56 -34 107 -63 113 -63 10 0 12 46 9 188 -2
156 -6 192 -20 214 -28 43 -47 39 -153 -29z"/>
<path d="M2516 1641 c1 -909 0 -888 60 -878 18 3 91 39 161 80 94 54 133 83
148 108 19 33 20 52 21 609 0 316 -3 593 -7 615 -5 28 -17 48 -41 68 -25 21
-333 217 -342 217 0 0 -1 -369 0 -819z"/>
<path d="M2049 2223 c-42 -10 -44 -30 -44 -572 1 -284 4 -528 8 -543 10 -40
39 -52 80 -35 33 14 202 112 244 142 54 38 55 51 55 424 0 190 -1 360 -1 376
-1 27 -12 37 -94 90 -153 100 -210 127 -248 118z"/>
<path d="M1511 2194 c-12 -15 -21 -38 -22 -53 0 -14 0 -317 -1 -672 0 -692 0
-700 49 -707 22 -3 83 27 217 106 132 79 121 18 121 634 0 462 -2 533 -15 546
-25 26 -175 121 -232 147 -68 32 -92 31 -117 -1z"/>
<path d="M961 1199 c-13 -5 -60 -31 -105 -58 -45 -27 -129 -76 -189 -109
l-107 -60 107 -69 c166 -108 226 -142 260 -152 29 -8 43 -3 143 55 170 97 250
153 250 174 0 31 -94 100 -253 184 -67 36 -86 42 -106 35z"/>
</g>
</svg>
